<svg width="25" height="22" viewBox="0 0 25 22" fill="none" xmlns="http://www.w3.org/2000/svg">
<g id="ideal-logo 1" clip-path="url(#clip0_711_272)">
<g id="Group">
<g id="Group_2">
<path id="Vector" d="M0 1.63084V20.3692C0 21.2661 0.735054 22 1.63345 22H12.8471C21.3247 22 25 17.2624 25 10.9755C25 4.72128 21.3247 0 12.8471 0H1.63345C0.735054 0 0 0.733877 0 1.63084Z" fill="white"/>
<path id="Vector_2" d="M7.50586 4.59891V18.4447H13.5415C19.0217 18.4447 21.3984 15.3543 21.3984 10.9836C21.3984 6.80054 19.0217 3.55518 13.5415 3.55518H8.55127C7.97139 3.55518 7.50586 4.02812 7.50586 4.59891Z" fill="#CC0066"/>
<g id="Group_3">
<g id="Group_4">
<path id="Vector_3" d="M12.8472 20.5078H3.09546C2.22973 20.5078 1.52734 19.8065 1.52734 18.9421V3.06594C1.52734 2.2016 2.22973 1.50034 3.09546 1.50034H12.8472C22.1007 1.50034 23.481 7.44474 23.481 10.9837C23.481 17.1238 19.6995 20.5078 12.8472 20.5078ZM3.09546 2.0222C2.51558 2.0222 2.05005 2.48699 2.05005 3.06594V18.9421C2.05005 19.5211 2.51558 19.9859 3.09546 19.9859H12.8472C19.3647 19.9859 22.9582 16.7894 22.9582 10.9837C22.9582 3.18825 16.6205 2.0222 12.8472 2.0222H3.09546Z" fill="#282828"/>
</g>
</g>
</g>
<g id="Group_5">
<path id="Vector_4" d="M9.62973 9.11631C9.84208 9.11631 10.0381 9.14893 10.2259 9.21416C10.4138 9.27939 10.569 9.3854 10.7078 9.51586C10.8385 9.65449 10.9447 9.82572 11.0263 10.0214C11.0998 10.2253 11.1407 10.4618 11.1407 10.739C11.1407 10.9836 11.108 11.2038 11.0508 11.4076C10.9855 11.6115 10.8957 11.7909 10.7731 11.9377C10.6506 12.0844 10.4955 12.1986 10.3076 12.2883C10.1198 12.3698 9.89925 12.4188 9.64607 12.4188H8.2168V9.10815H9.62973V9.11631ZM9.58073 11.8153C9.6869 11.8153 9.78491 11.799 9.89108 11.7664C9.98909 11.7338 10.0789 11.6767 10.1524 11.5952C10.2259 11.5136 10.2913 11.4158 10.3403 11.2853C10.3893 11.1549 10.4138 11.0081 10.4138 10.8205C10.4138 10.6575 10.3975 10.5025 10.3648 10.3721C10.3321 10.2416 10.2749 10.1193 10.2014 10.0296C10.1279 9.93988 10.0299 9.85834 9.90742 9.80942C9.78491 9.76049 9.6379 9.73603 9.45822 9.73603H8.93552V11.8235H9.58073V11.8153Z" fill="white"/>
<path id="Vector_5" d="M14.0889 9.11631V9.72787H12.3411V10.4373H13.9501V10.9999H12.3411V11.8072H14.1298V12.4188H11.6143V9.10815H14.0889V9.11631Z" fill="white"/>
<path id="Vector_6" d="M16.5878 9.1163L17.8292 12.4269H17.0696L16.8164 11.693H15.575L15.3137 12.4269H14.5786L15.8282 9.1163H16.5878ZM16.6286 11.1467L16.2121 9.93172H16.2039L15.771 11.1467H16.6286Z" fill="white"/>
<path id="Vector_7" d="M19.014 9.1163V11.8153H20.6311V12.4269H18.2871V9.1163H19.014Z" fill="white"/>
</g>
<g id="Group_6">
<path id="Vector_8" d="M4.77826 12.2966C5.62175 12.2966 6.30554 11.6139 6.30554 10.7718C6.30554 9.92964 5.62175 9.24695 4.77826 9.24695C3.93476 9.24695 3.25098 9.92964 3.25098 10.7718C3.25098 11.6139 3.93476 12.2966 4.77826 12.2966Z" fill="#282828"/>
</g>
<path id="Vector_9" d="M5.9295 18.4446C4.64724 18.4446 3.61816 17.4091 3.61816 16.137V14.3349C3.61816 13.6989 4.1327 13.177 4.77791 13.177C5.41496 13.177 5.93766 13.6907 5.93766 14.3349V18.4446H5.9295Z" fill="#282828"/>
</g>
</g>
<defs>
<clipPath id="clip0_711_272">
<rect width="25" height="22" fill="white"/>
</clipPath>
</defs>
</svg>
