<svg
  width="48"
  height="48"
  viewBox="0 0 48 48"
  xmlns="http://www.w3.org/2000/svg">
  <g>
    <path
      d="M27.0041 5.93749L26.8047 5.73896C26.0553 4.98865 25.0591 4.57617 23.9988 4.57617C22.9393 4.57617 21.9433 4.9888 21.1939 5.73821L20.9945 5.93764L0.830536 38.4272C0.0127566 39.3867 -0.219142 40.5511 0.215331 41.6C0.688105 42.7417 1.81678 43.4237 3.23345 43.4237H44.7663C46.1839 43.4237 47.3117 42.7417 47.7845 41.6C48.2189 40.5511 47.987 39.3858 47.1692 38.4272L27.0041 5.93749ZM6.50577 38.542L23.9997 10.3561L41.4945 38.542H6.50577Z" />
    <path
      d="M21.5078 18.2529V28.9334C21.5078 30.3093 22.6235 31.425 23.9995 31.425C25.3754 31.425 26.4911 30.3093 26.4911 28.9334V18.2529C26.4911 16.8769 25.3754 15.7612 23.9995 15.7612C22.6235 15.7611 21.5078 16.8767 21.5078 18.2529Z" />
    <path
      d="M23.9743 37.6112C25.3365 37.6112 26.4408 36.5069 26.4408 35.1447C26.4408 33.7825 25.3365 32.6782 23.9743 32.6782C22.6121 32.6782 21.5078 33.7825 21.5078 35.1447C21.5078 36.5069 22.6121 37.6112 23.9743 37.6112Z" />
  </g>
</svg>
